<svg width="38" height="38" viewBox="0 0 38 38" fill="none" xmlns="http://www.w3.org/2000/svg">
<g filter="url(#filter0_d_2033_15)">
<circle cx="19" cy="15" r="14.5" stroke="black"/>
<path d="M17.8565 23V12.0909H20.4275V23H17.8565ZM19.1491 10.5426C18.7419 10.5426 18.3915 10.4077 18.0979 10.1378C17.8044 9.86316 17.6576 9.53409 17.6576 9.15057C17.6576 8.76231 17.8044 8.43324 18.0979 8.16335C18.3915 7.88873 18.7419 7.75142 19.1491 7.75142C19.561 7.75142 19.9114 7.88873 20.2002 8.16335C20.4938 8.43324 20.6405 8.76231 20.6405 9.15057C20.6405 9.53409 20.4938 9.86316 20.2002 10.1378C19.9114 10.4077 19.561 10.5426 19.1491 10.5426Z" fill="black"/>
</g>
<defs>
<filter id="filter0_d_2033_15" x="0" y="0" width="38" height="38" filterUnits="userSpaceOnUse" color-interpolation-filters="sRGB">
<feFlood flood-opacity="0" result="BackgroundImageFix"/>
<feColorMatrix in="SourceAlpha" type="matrix" values="0 0 0 0 0 0 0 0 0 0 0 0 0 0 0 0 0 0 127 0" result="hardAlpha"/>
<feOffset dy="4"/>
<feGaussianBlur stdDeviation="2"/>
<feComposite in2="hardAlpha" operator="out"/>
<feColorMatrix type="matrix" values="0 0 0 0 0 0 0 0 0 0 0 0 0 0 0 0 0 0 0.25 0"/>
<feBlend mode="normal" in2="BackgroundImageFix" result="effect1_dropShadow_2033_15"/>
<feBlend mode="normal" in="SourceGraphic" in2="effect1_dropShadow_2033_15" result="shape"/>
</filter>
</defs>
</svg>
